<?xml version="1.0" encoding="UTF-8"?>
<svg id="Layer_1" data-name="Layer 1" xmlns="http://www.w3.org/2000/svg" viewBox="0 0 640 480">
  <defs>
    <style>
      .cls-1 {
        fill: #262331;
      }

      .cls-2 {
        fill: #4f97d1;
      }
    </style>
  </defs>
  <g>
    <path class="cls-2" d="M147.82,188.66c8.89,3.27,15.77,7.95,20.64,14.02,4.86,6.08,7.3,13.23,7.3,21.44s-2.47,15.66-7.41,21.89c-4.94,6.24-11.67,10.49-20.18,12.77,10.18,1.98,18.21,6.61,24.06,13.91,5.85,7.3,8.78,16.12,8.78,26.45,0,8.97-2.51,16.84-7.53,23.6-5.02,6.77-12.17,11.94-21.44,15.51-9.28,3.57-20.15,5.36-32.61,5.36H40.52v-159.87h75.94c12.01,0,22.46,1.64,31.36,4.9ZM127.86,243.17c3.34-2.81,5.02-6.73,5.02-11.75s-1.67-8.63-5.02-11.29c-3.35-2.66-7.91-3.91-13.68-3.76h-31.93v31.02h31.93c5.78,0,10.34-1.4,13.68-4.22ZM131.51,306.68c4.25-3.04,6.39-7.3,6.39-12.77,0-5.02-2.13-9.01-6.39-11.97-4.26-2.96-10.03-4.37-17.33-4.22h-31.93v33.52h31.93c7.3,0,13.07-1.52,17.33-4.56Z"/>
    <path class="cls-2" d="M317.03,193.79c12.85,6.69,22.84,16.08,29.99,28.17,7.14,12.09,10.72,25.96,10.72,41.62s-3.61,29.57-10.83,41.73c-7.22,12.17-17.41,21.59-30.56,28.28-13.15,6.69-28.24,10.03-45.27,10.03h-67.28v-159.87h68.87c16.72,0,31.51,3.35,44.36,10.03ZM295.25,304.17c6.23-3.8,11.1-9.2,14.6-16.19,3.5-6.99,5.25-14.97,5.25-23.95s-1.86-17.18-5.59-24.17c-3.73-6.99-8.86-12.43-15.39-16.31-6.54-3.88-13.99-5.82-22.35-5.82h-26.23v92.13h28.28c8.06,0,15.2-1.9,21.44-5.7Z"/>
    <path class="cls-2" d="M532.2,343.62h-49.94l-41.96-62.03-20.07,22.35v39.68h-41.73v-159.87h41.73v69.33l59.98-69.33h48.35l-59.29,65.91,62.94,93.96Z"/>
  </g>
  <g>
    <path class="cls-1" d="M544.69,136.38h10.44v46.27h-10.44v-46.27Z"/>
    <path class="cls-1" d="M560.81,136.38h38.67v8.86h-14.14v37.41h-10.44v-37.41h-14.08v-8.86Z"/>
  </g>
</svg>